<svg width="70" height="23" viewBox="0 0 70 23" fill="none" xmlns="http://www.w3.org/2000/svg">
<path fill-rule="evenodd" clip-rule="evenodd" d="M34.5507 3.98759C35.2105 3.32787 36.2801 3.32787 36.9399 3.98759C37.5997 4.64737 37.5997 5.71705 36.9399 6.37683L32.9175 10.3992C31.7626 8.85148 31.8881 6.65023 33.2939 5.24445L34.5507 3.98759Z" fill="#4F9E91"/>
<path fill-rule="evenodd" clip-rule="evenodd" d="M40.3011 13.0628C40.9609 13.7225 40.9609 14.7922 40.3011 15.452C39.6417 16.1117 38.5718 16.1117 37.912 15.452L33.8896 11.4296C35.4374 10.2747 37.6386 10.4002 39.0444 11.8059L40.3011 13.0628Z" fill="#EBE1C5"/>
<path fill-rule="evenodd" clip-rule="evenodd" d="M31.2258 18.8132C30.5661 19.473 29.4964 19.473 28.8366 18.8132C28.1769 18.1534 28.1769 17.0837 28.8366 16.424L32.859 12.4016C34.0138 13.9494 33.8884 16.1506 32.4826 17.5563L31.2258 18.8132Z" fill="#EBCC6E"/>
<path fill-rule="evenodd" clip-rule="evenodd" d="M25.4755 9.73805C24.8158 9.07828 24.8158 8.00861 25.4755 7.34883C26.1353 6.68906 27.205 6.68906 27.8648 7.34883L31.8872 11.3712C30.3394 12.5261 28.1381 12.4006 26.7324 10.9949L25.4755 9.73805Z" fill="#ED834E"/>
<path fill-rule="evenodd" clip-rule="evenodd" d="M33.6519 18.3206C34.6247 17.239 35.0769 15.8549 35.0082 14.4922L36.94 16.424C36.9448 16.4288 36.9497 16.4336 36.9545 16.4384V17.8175C36.9545 18.7506 36.1982 19.507 35.2651 19.507C34.5073 19.507 33.866 19.008 33.6519 18.3206Z" fill="#ED834E"/>
<path fill-rule="evenodd" clip-rule="evenodd" d="M25.9681 12.1639C27.0497 13.1368 28.4337 13.589 29.7965 13.5204L27.8647 15.4522C27.8599 15.457 27.8551 15.4618 27.8503 15.4666H26.4712C25.5381 15.4667 24.7817 14.7102 24.7817 13.7772C24.7817 13.0194 25.2807 12.3781 25.9681 12.1639Z" fill="#4F9E91"/>
<path fill-rule="evenodd" clip-rule="evenodd" d="M39.8085 10.6371C38.727 9.66419 37.3429 9.21203 35.9802 9.28058L37.912 7.34885C37.9168 7.34405 37.9216 7.3392 37.9264 7.33435H39.3056C40.2388 7.33435 40.9951 8.09077 40.9951 9.02381C40.9951 9.78167 40.496 10.4229 39.8085 10.6371Z" fill="#EBCC6E"/>
<path fill-rule="evenodd" clip-rule="evenodd" d="M32.1249 4.48021C31.1521 5.56182 30.6999 6.94588 30.7685 8.30865L28.8368 6.37687C28.8319 6.37206 28.8271 6.36726 28.8223 6.36246V4.98329C28.8223 4.05025 29.5786 3.29382 30.5117 3.29382C31.2695 3.29382 31.9108 3.79286 32.1249 4.48021Z" fill="#EBE1C5"/>
<path fill-rule="evenodd" clip-rule="evenodd" d="M30.5116 1.91931C28.8194 1.91931 27.4476 3.29111 27.4476 4.98328V5.5792C26.4296 5.31321 25.3014 5.57906 24.5036 6.37684C23.307 7.5734 23.307 9.51341 24.5036 10.71L24.9249 11.1313C24.017 11.6631 23.4072 12.6489 23.4072 13.7771C23.4072 15.4692 24.779 16.841 26.4712 16.841H27.0671C26.8011 17.8591 27.0669 18.9873 27.8647 19.7851C29.0613 20.9816 31.0013 20.9816 32.1978 19.7851L33.4546 18.5283C34.5633 17.4196 35.0812 15.9437 35.0081 14.4921L36.9399 16.4239C38.1365 17.6204 40.0765 17.6204 41.2731 16.4239C42.4697 15.2273 42.4697 13.2873 41.2731 12.0908L40.8519 11.6695C41.7595 11.1377 42.3694 10.1519 42.3694 9.02374C42.3694 7.33156 40.9974 5.95977 39.3054 5.95977H38.7095C38.9755 4.94168 38.7096 3.81344 37.9118 3.01565C36.7153 1.8191 34.7753 1.8191 33.5788 3.01565L32.3219 4.2725C31.2132 5.38119 30.6954 6.85701 30.7685 8.30862L28.8367 6.37684C28.8318 6.37204 28.827 6.36724 28.8222 6.36244V4.98328C28.8222 4.05024 29.5786 3.29386 30.5116 3.29386C31.2695 3.29386 31.9107 3.79285 32.1249 4.4802C32.1883 4.40965 32.254 4.34038 32.3219 4.2725L33.1574 3.43701C32.6256 2.52907 31.6398 1.91931 30.5116 1.91931ZM37.9262 7.33432C37.9214 7.33912 37.9167 7.34397 37.9118 7.34877L35.9801 9.2805C37.3429 9.21195 38.7269 9.66407 39.8084 10.637C40.4958 10.4229 40.995 9.78154 40.995 9.02374C40.995 8.0907 40.2386 7.33432 39.3054 7.33432H37.9262ZM27.8503 15.4665C27.8551 15.4616 27.8599 15.4568 27.8647 15.452L29.7964 13.5202C28.4337 13.5888 27.0497 13.1366 25.9681 12.1638C25.2808 12.3779 24.7817 13.0192 24.7817 13.7771C24.7817 14.7101 25.5382 15.4665 26.4712 15.4665H27.8503ZM25.9154 12.1158C25.863 12.0674 25.8113 12.0177 25.7604 11.9668V11.9668C25.8113 12.0177 25.863 12.0674 25.9154 12.1158ZM35.265 20.8815C34.1368 20.8815 33.151 20.2717 32.6192 19.3638L33.4546 18.5283C33.5226 18.4604 33.5882 18.3911 33.6517 18.3206C33.8658 19.0079 34.5071 19.507 35.265 19.507C36.198 19.507 36.9544 18.7506 36.9544 17.8175V16.4384C37.3503 16.8291 37.8262 17.0902 38.329 17.2216V17.8175C38.329 19.5097 36.9572 20.8815 35.265 20.8815ZM36.9399 3.98758C36.2801 3.32786 35.2105 3.32786 34.5507 3.98758L33.2938 5.24442C31.8881 6.65021 31.7627 8.85145 32.9175 10.3992L36.9399 6.3768C37.5997 5.71702 37.5997 4.64736 36.9399 3.98758ZM40.3009 15.4519C40.9608 14.7922 40.9608 13.7225 40.3009 13.0627L39.0442 11.8059C37.6385 10.4001 35.4372 10.2747 33.8894 11.4295L37.9118 15.4519C38.5716 16.1117 39.6415 16.1117 40.3009 15.4519ZM31.2259 18.8131C30.5661 19.4729 29.4964 19.4729 28.8366 18.8131C28.1769 18.1534 28.1769 17.0837 28.8366 16.4239L32.859 12.4015C34.0139 13.9493 33.8884 16.1506 32.4827 17.5563L31.2259 18.8131ZM25.4755 7.34877C24.8158 8.00855 24.8158 9.07822 25.4755 9.73799L26.7323 10.9948C28.1381 12.4006 30.3394 12.526 31.8871 11.3712L27.8647 7.34877C27.2049 6.68905 26.1353 6.68905 25.4755 7.34877Z" fill="#3D3A2C"/>
<path d="M0.72876 8.11536H2.23134V12.7845H4.81205V14.0493H0.72876V8.11536Z" fill="#3D3A2C"/>
<path d="M7.54017 14.1766C7.03647 14.1766 6.59501 14.086 6.21582 13.9049C5.83663 13.7181 5.54235 13.4634 5.33294 13.1409C5.12922 12.8126 5.02734 12.4363 5.02734 12.0118C5.02734 11.5873 5.12922 11.2138 5.33294 10.8912C5.54235 10.563 5.83663 10.3083 6.21582 10.1272C6.59501 9.94042 7.03647 9.84705 7.54017 9.84705C8.04387 9.84705 8.48528 9.94042 8.86447 10.1272C9.24366 10.3083 9.53513 10.563 9.73885 10.8912C9.94826 11.2138 10.0529 11.5873 10.0529 12.0118C10.0529 12.4363 9.94826 12.8126 9.73885 13.1409C9.53513 13.4634 9.24366 13.7181 8.86447 13.9049C8.48528 14.086 8.04387 14.1766 7.54017 14.1766ZM7.54017 13.0135C7.84011 13.0135 8.07781 12.9258 8.25324 12.7504C8.43437 12.5692 8.52489 12.3231 8.52489 12.0118C8.52489 11.7005 8.43437 11.4572 8.25324 11.2817C8.07781 11.1006 7.84011 11.0101 7.54017 11.0101C7.24019 11.0101 6.99968 11.1006 6.81859 11.2817C6.64312 11.4572 6.55541 11.7005 6.55541 12.0118C6.55541 12.3231 6.64312 12.5692 6.81859 12.7504C6.99968 12.9258 7.24019 13.0135 7.54017 13.0135Z" fill="#3D3A2C"/>
<path d="M12.8593 16.0017C12.5877 16.0017 12.3132 15.9763 12.0359 15.9254C11.7642 15.8744 11.5293 15.8065 11.3313 15.7216V14.6859C11.7784 14.8783 12.2877 14.9745 12.8593 14.9745C13.2725 14.9745 13.5696 14.8896 13.7507 14.7199C13.9375 14.5501 14.0308 14.3011 14.0308 13.9728V13.7266C13.8667 13.8681 13.663 13.9785 13.4196 14.0577C13.1819 14.137 12.9272 14.1766 12.6556 14.1766C12.2255 14.1766 11.8463 14.086 11.518 13.9049C11.1898 13.7238 10.9323 13.4691 10.7455 13.1409C10.5644 12.8126 10.4739 12.4363 10.4739 12.0118C10.4739 11.5817 10.5644 11.2025 10.7455 10.8743C10.9266 10.546 11.1813 10.2941 11.5096 10.1187C11.8378 9.93761 12.2142 9.84705 12.6386 9.84705C13.2216 9.84705 13.7026 10.0253 14.0818 10.3819V9.97436H15.525V13.7691C15.525 14.4765 15.307 15.0255 14.8713 15.416C14.4412 15.8065 13.7705 16.0017 12.8593 16.0017ZM13.0291 13.022C13.2612 13.022 13.4677 12.9626 13.6488 12.8437C13.8299 12.7249 13.9573 12.5664 14.0308 12.3683V11.6553C13.9516 11.4572 13.8214 11.3015 13.6403 11.1883C13.4592 11.0695 13.2555 11.0101 13.0291 11.0101C12.7235 11.0101 12.4773 11.1006 12.2906 11.2817C12.1038 11.4572 12.0104 11.6977 12.0104 12.0033C12.0104 12.3146 12.1038 12.5636 12.2906 12.7504C12.4773 12.9315 12.7235 13.022 13.0291 13.022Z" fill="#3D3A2C"/>
<path d="M18.4169 14.1766C17.9132 14.1766 17.4718 14.086 17.0926 13.9049C16.7134 13.7181 16.4191 13.4634 16.2097 13.1409C16.0059 12.8126 15.9041 12.4363 15.9041 12.0118C15.9041 11.5873 16.0059 11.2138 16.2097 10.8912C16.4191 10.563 16.7134 10.3083 17.0926 10.1272C17.4718 9.94042 17.9132 9.84705 18.4169 9.84705C18.9206 9.84705 19.362 9.94042 19.7412 10.1272C20.1204 10.3083 20.4118 10.563 20.6156 10.8912C20.825 11.2138 20.9297 11.5873 20.9297 12.0118C20.9297 12.4363 20.825 12.8126 20.6156 13.1409C20.4118 13.4634 20.1204 13.7181 19.7412 13.9049C19.362 14.086 18.9206 14.1766 18.4169 14.1766ZM18.4169 13.0135C18.7168 13.0135 18.9545 12.9258 19.13 12.7504C19.3111 12.5692 19.4016 12.3231 19.4016 12.0118C19.4016 11.7005 19.3111 11.4572 19.13 11.2817C18.9545 11.1006 18.7168 11.0101 18.4169 11.0101C18.1169 11.0101 17.8764 11.1006 17.6953 11.2817C17.5198 11.4572 17.4321 11.7005 17.4321 12.0118C17.4321 12.3231 17.5198 12.5692 17.6953 12.7504C17.8764 12.9258 18.1169 13.0135 18.4169 13.0135Z" fill="#3D3A2C"/>
<path d="M44.8938 8.11536H46.3966V14.0493H44.8938V8.11536Z" fill="#3D3A2C"/>
<path d="M47.1575 9.97436H48.6008V10.3819C48.9797 10.0253 49.4608 9.84705 50.0436 9.84705C50.4682 9.84705 50.8447 9.93761 51.1727 10.1187C51.5012 10.2941 51.7556 10.546 51.9367 10.8743C52.1179 11.1968 52.2087 11.5732 52.2087 12.0033C52.2087 12.4278 52.1179 12.8069 51.9367 13.1409C51.7556 13.4691 51.5012 13.7238 51.1727 13.9049C50.8504 14.086 50.4739 14.1766 50.0436 14.1766C49.7722 14.1766 49.5117 14.1341 49.263 14.0492C49.0196 13.97 48.8157 13.8596 48.6516 13.7181V15.9083H47.1575V9.97436ZM49.6533 13.0135C49.959 13.0135 50.2053 12.923 50.3916 12.7419C50.5785 12.5608 50.6721 12.3146 50.6721 12.0033C50.6721 11.692 50.5785 11.4487 50.3916 11.2732C50.2053 11.0921 49.959 11.0016 49.6533 11.0016C49.427 11.0016 49.2231 11.061 49.0419 11.1799C48.8608 11.2931 48.731 11.4487 48.6516 11.6468V12.3683C48.731 12.5664 48.8608 12.7249 49.0419 12.8437C49.2231 12.9569 49.427 13.0135 49.6533 13.0135Z" fill="#3D3A2C"/>
<path d="M54.4359 14.1766C54.1078 14.1766 53.7655 14.1426 53.409 14.0747C53.0524 14.0124 52.7691 13.9219 52.5599 13.803V12.7079C52.7919 12.8437 53.0691 12.9569 53.3919 13.0475C53.7199 13.1324 54.0199 13.1748 54.2918 13.1748C54.4896 13.1748 54.6341 13.1607 54.7244 13.1324C54.8152 13.1041 54.8604 13.0475 54.8604 12.9626C54.8604 12.8947 54.8295 12.8409 54.7672 12.8013C54.7107 12.756 54.6027 12.7107 54.4444 12.6655C54.2918 12.6145 54.1135 12.5608 53.9096 12.5042C53.5644 12.4023 53.293 12.2976 53.0947 12.1901C52.8965 12.0825 52.7496 11.9467 52.6531 11.7826C52.5571 11.6185 52.509 11.4119 52.509 11.1629C52.509 10.7214 52.6816 10.3932 53.0268 10.1781C53.3776 9.95739 53.8559 9.84705 54.4615 9.84705C54.7558 9.84705 55.0644 9.87819 55.3867 9.94042C55.7152 10.0027 55.961 10.0848 56.1255 10.1866V11.2648C55.9558 11.1516 55.729 11.0582 55.4461 10.9846C55.169 10.911 54.9084 10.8743 54.665 10.8743C54.473 10.8743 54.3227 10.894 54.2153 10.9336C54.1078 10.9676 54.0541 11.0299 54.0541 11.1204C54.0541 11.2053 54.1078 11.2704 54.2153 11.3157C54.3227 11.3609 54.5153 11.4176 54.7924 11.4855C54.9736 11.5308 55.0501 11.5505 55.0216 11.5449C55.3838 11.6411 55.6639 11.7486 55.8621 11.8675C56.0603 11.9863 56.1987 12.1278 56.2781 12.2919C56.3632 12.4504 56.4055 12.6542 56.4055 12.9032C56.4055 13.2937 56.2358 13.6049 55.8963 13.837C55.5621 14.0634 55.0753 14.1766 54.4359 14.1766Z" fill="#3D3A2C"/>
<path d="M58.6361 14.1766C58.0761 14.1766 57.6544 14.0209 57.3716 13.7097C57.0944 13.3984 56.9556 12.9881 56.9556 12.4787V9.97437H58.4498V12.3089C58.4498 12.7787 58.6618 13.0135 59.0864 13.0135C59.2789 13.0135 59.4543 12.9683 59.6126 12.8777C59.7709 12.7871 59.9012 12.6542 60.0029 12.4787V9.97437H61.4972V14.0492H60.0543V13.6078C59.8789 13.7945 59.6664 13.936 59.4172 14.0322C59.1686 14.1284 58.9081 14.1766 58.6361 14.1766Z" fill="#3D3A2C"/>
<path d="M62.262 9.97436H63.6459V10.4158C63.8156 10.2347 64.011 10.0961 64.2316 9.99984C64.4522 9.89796 64.687 9.84705 64.9361 9.84705C65.2418 9.84705 65.4852 9.8923 65.6664 9.98287C65.8532 10.0734 66.003 10.2093 66.1161 10.3903C66.2858 10.2206 66.4926 10.0876 66.7361 9.99138C66.9795 9.89516 67.2257 9.84705 67.4744 9.84705C68.012 9.84705 68.3943 9.98572 68.6206 10.263C68.8469 10.5347 68.96 10.928 68.96 11.443V14.0492H67.5338V11.6553C67.5338 11.4289 67.4915 11.2648 67.4064 11.1629C67.3217 11.061 67.1801 11.0101 66.9823 11.0101C66.7275 11.0101 66.5207 11.1006 66.3624 11.2817C66.3681 11.3779 66.3709 11.5251 66.3709 11.7232V14.0492H64.9447V11.5958C64.9447 11.3864 64.9081 11.2364 64.8344 11.1459C64.7607 11.0553 64.6305 11.0101 64.4441 11.0101C64.155 11.0101 63.9064 11.1713 63.6968 11.494V14.0492H62.262V9.97436Z" fill="#3D3A2C"/>
</svg>
