<svg width="170" height="42" viewBox="0 0 170 42" fill="none" xmlns="http://www.w3.org/2000/svg">
<g clip-path="url(#clip0_119_150)">
<path d="M51.8601 28.7845H63.8121V25.1845H56.1081V11.6245H51.8601V28.7845Z" fill="#8ECAE6"/>
<path d="M70.8933 26.3846C69.1893 26.3846 68.3013 24.8966 68.3013 22.6646C68.3013 20.4326 69.1893 18.9206 70.8933 18.9206C72.5973 18.9206 73.5093 20.4326 73.5093 22.6646C73.5093 24.8966 72.5973 26.3846 70.8933 26.3846ZM70.9173 29.1686C74.8773 29.1686 77.4693 26.3606 77.4693 22.6646C77.4693 18.9686 74.8773 16.1606 70.9173 16.1606C66.9813 16.1606 64.3413 18.9686 64.3413 22.6646C64.3413 26.3606 66.9813 29.1686 70.9173 29.1686Z" fill="#8ECAE6"/>
<path d="M84.3237 33.0327C86.1477 33.0327 87.7557 32.6247 88.8357 31.6647C89.8197 30.7767 90.4677 29.4327 90.4677 27.5847V16.4967H86.7237V17.8167H86.6757C85.9557 16.7847 84.8517 16.1367 83.2197 16.1367C80.1717 16.1367 78.0597 18.6807 78.0597 22.2807C78.0597 26.0487 80.6277 28.1127 83.3877 28.1127C84.8757 28.1127 85.8117 27.5127 86.5317 26.6967H86.6277V27.9207C86.6277 29.4087 85.9317 30.2727 84.2757 30.2727C82.9797 30.2727 82.3317 29.7207 82.1157 29.0727H78.3237C78.7077 31.6407 80.9397 33.0327 84.3237 33.0327ZM84.2997 25.2087C82.8357 25.2087 81.8757 24.0087 81.8757 22.1607C81.8757 20.2887 82.8357 19.0887 84.2997 19.0887C85.9317 19.0887 86.7957 20.4807 86.7957 22.1367C86.7957 23.8647 86.0037 25.2087 84.2997 25.2087Z" fill="#8ECAE6"/>
<path d="M98.166 26.3846C96.462 26.3846 95.574 24.8966 95.574 22.6646C95.574 20.4326 96.462 18.9206 98.166 18.9206C99.87 18.9206 100.782 20.4326 100.782 22.6646C100.782 24.8966 99.87 26.3846 98.166 26.3846ZM98.19 29.1686C102.15 29.1686 104.742 26.3606 104.742 22.6646C104.742 18.9686 102.15 16.1606 98.19 16.1606C94.254 16.1606 91.614 18.9686 91.614 22.6646C91.614 26.3606 94.254 29.1686 98.19 29.1686Z" fill="#8ECAE6"/>
<path d="M105.884 28.7845H109.796V16.4965H105.884V28.7845ZM105.884 14.7925H109.796V11.6245H105.884V14.7925Z" fill="#8ECAE6"/>
<path d="M111.494 32.8407H115.406V27.5127H115.454C116.222 28.5447 117.35 29.1687 118.934 29.1687C122.15 29.1687 124.286 26.6247 124.286 22.6407C124.286 18.9447 122.294 16.1367 119.03 16.1367C117.35 16.1367 116.15 16.8807 115.31 17.9847H115.238V16.4967H111.494V32.8407ZM117.926 26.1447C116.246 26.1447 115.286 24.7767 115.286 22.7847C115.286 20.7927 116.15 19.2807 117.854 19.2807C119.534 19.2807 120.326 20.6727 120.326 22.7847C120.326 24.8727 119.414 26.1447 117.926 26.1447Z" fill="#8ECAE6"/>
<path d="M130.655 29.1687C133.871 29.1687 136.247 27.7767 136.247 25.0887C136.247 21.9447 133.703 21.3927 131.543 21.0327C129.983 20.7447 128.591 20.6247 128.591 19.7607C128.591 18.9927 129.335 18.6327 130.295 18.6327C131.375 18.6327 132.119 18.9687 132.263 20.0727H135.863C135.671 17.6487 133.799 16.1367 130.319 16.1367C127.415 16.1367 125.015 17.4807 125.015 20.0727C125.015 22.9527 127.295 23.5287 129.431 23.8887C131.063 24.1767 132.551 24.2967 132.551 25.4007C132.551 26.1927 131.807 26.6247 130.631 26.6247C129.335 26.6247 128.519 26.0247 128.375 24.8007H124.679C124.799 27.5127 127.055 29.1687 130.655 29.1687Z" fill="#8ECAE6"/>
<path d="M141.561 29.1446C143.265 29.1446 144.345 28.4726 145.233 27.2726H145.305V28.7846H149.049V16.4966H145.137V23.3606C145.137 24.8246 144.321 25.8326 142.977 25.8326C141.729 25.8326 141.129 25.0886 141.129 23.7446V16.4966H137.241V24.5606C137.241 27.2966 138.729 29.1446 141.561 29.1446Z" fill="#8ECAE6"/>
<path d="M150.75 28.7847H154.662V21.8967C154.662 20.4327 155.382 19.4007 156.606 19.4007C157.782 19.4007 158.334 20.1687 158.334 21.4887V28.7847H162.246V21.8967C162.246 20.4327 162.942 19.4007 164.19 19.4007C165.366 19.4007 165.918 20.1687 165.918 21.4887V28.7847H169.83V20.7927C169.83 18.0327 168.438 16.1367 165.654 16.1367C164.07 16.1367 162.75 16.8087 161.79 18.2967H161.742C161.118 16.9767 159.894 16.1367 158.286 16.1367C156.51 16.1367 155.334 16.9767 154.566 18.2487H154.494V16.4967H150.75V28.7847Z" fill="#8ECAE6"/>
<path fill-rule="evenodd" clip-rule="evenodd" d="M20.6841 40.7846C31.7298 40.7846 40.6841 31.8303 40.6841 20.7846C40.6841 9.73898 31.7298 0.784668 20.6841 0.784668C9.63837 0.784668 0.684082 9.73898 0.684082 20.7846C0.684082 31.8303 9.63837 40.7846 20.6841 40.7846ZM26.9234 10.1015C27.2271 9.02272 26.1802 8.3848 25.2241 9.06597L11.8772 18.5742C10.8403 19.3129 11.0034 20.7846 12.1222 20.7846H15.6368V20.7574H22.4866L16.9053 22.7267L14.4448 31.4678C14.1411 32.5466 15.1879 33.1845 16.1441 32.5033L29.491 22.9951C30.5279 22.2564 30.3647 20.7846 29.246 20.7846H23.9162L26.9234 10.1015Z" fill="#F5841F"/>
</g>
<defs>
<clipPath id="clip0_119_150">
<rect width="170" height="41" fill="white" transform="translate(0 0.646484)"/>
</clipPath>
</defs>
</svg>
