<svg width="57" height="19" viewBox="0 0 57 19" fill="none" xmlns="http://www.w3.org/2000/svg">
<g clip-path="url(#clip0_134_176)">
<path d="M39.9995 16.8987C40.3407 16.8987 40.5426 16.6402 40.5426 16.236C40.5426 15.8169 40.3259 15.5732 40.0067 15.5732C39.8241 15.5732 39.6973 15.6542 39.6025 15.7828H39.598V15.1205H39.4001V16.8618H39.598V16.6964H39.6025C39.705 16.8376 39.8291 16.8987 39.9995 16.8987ZM39.9851 16.7328C39.7171 16.7328 39.5854 16.521 39.5854 16.2382C39.5854 15.9658 39.7122 15.7414 39.9873 15.7414C40.2261 15.7414 40.3407 15.9559 40.3407 16.2382C40.3407 16.5233 40.2261 16.7328 39.9851 16.7328ZM40.8767 17.2786C41.03 17.2786 41.1276 17.2247 41.2296 16.9639L41.7683 15.6025H41.5587L41.271 16.387C41.2323 16.4918 41.1883 16.633 41.1883 16.633H41.1838C41.1838 16.633 41.137 16.4918 41.0983 16.387L40.8011 15.6025H40.5867L41.0786 16.8254L41.03 16.9495C40.9814 17.0714 40.9252 17.1033 40.8425 17.1033C40.7963 17.1056 40.7502 17.0963 40.7085 17.0763H40.6986V17.2516C40.7526 17.2737 40.8011 17.2786 40.8767 17.2786ZM42.2732 16.8618H42.6045V15.1205H42.2732V16.8618ZM43.4147 16.8987C43.8019 16.8987 44.0676 16.6109 44.0676 16.2382C44.0676 15.8655 43.8023 15.5782 43.4147 15.5782C43.0276 15.5782 42.7619 15.8659 42.7619 16.2382C42.7619 16.6114 43.0272 16.8987 43.4147 16.8987ZM43.4147 16.6451C43.2102 16.6451 43.0982 16.4819 43.0982 16.2382C43.0982 15.995 43.2102 15.8291 43.4147 15.8291C43.6171 15.8291 43.7313 15.995 43.7313 16.2382C43.7313 16.4819 43.6171 16.6451 43.4147 16.6451ZM44.7721 17.2881C44.9574 17.2881 45.1179 17.2445 45.2226 17.1469C45.3152 17.0615 45.3714 16.9423 45.3714 16.767V15.6124H45.0522V15.7441H45.0473C44.9717 15.6393 44.8575 15.5782 44.7011 15.5782C44.385 15.5782 44.1606 15.8169 44.1606 16.1897C44.1606 16.5673 44.4336 16.7863 44.7114 16.7863C44.8697 16.7863 44.9646 16.7234 45.0374 16.6402H45.045V16.7769C45.045 16.9473 44.9551 17.0376 44.7672 17.0376C44.6139 17.0376 44.5433 16.9765 44.5163 16.8983H44.1876C44.2213 17.1419 44.4309 17.2881 44.7721 17.2881ZM44.7676 16.521C44.5968 16.521 44.4844 16.3969 44.4844 16.1847C44.4844 15.9752 44.5968 15.8439 44.7649 15.8439C44.9645 15.8439 45.0621 15.9995 45.0621 16.1825C45.0621 16.3677 44.9767 16.521 44.7672 16.521H44.7676ZM46.1767 16.8987C46.5638 16.8987 46.8295 16.6109 46.8295 16.2382C46.8295 15.8655 46.5638 15.5782 46.1767 15.5782C45.7891 15.5782 45.5239 15.8659 45.5239 16.2382C45.5239 16.6114 45.7891 16.8987 46.1767 16.8987ZM46.1767 16.6451C45.9721 16.6451 45.8597 16.4819 45.8597 16.2382C45.8597 15.995 45.9721 15.8291 46.1767 15.8291C46.3786 15.8291 46.4932 15.995 46.4932 16.2382C46.4932 16.4819 46.3786 16.6451 46.1767 16.6451ZM46.9833 16.8618H47.3147V15.6124H46.9833V16.8623V16.8618ZM46.9833 15.4177H47.3147V15.1205H46.9833V15.4172V15.4177ZM47.5282 17.271H47.8596V16.7211H47.8641C47.9351 16.8286 48.0493 16.8992 48.2247 16.8992C48.5462 16.8992 48.7656 16.6429 48.7656 16.2387C48.7656 15.8489 48.5538 15.5786 48.2224 15.5786C48.1502 15.5775 48.0788 15.5942 48.0146 15.6274C47.9504 15.6606 47.8955 15.7092 47.8547 15.7688H47.8475V15.6128H47.5282V17.2719V17.271ZM48.1541 16.6235C47.9567 16.6235 47.852 16.4747 47.852 16.2481C47.852 16.0242 47.9351 15.8462 48.142 15.8462C48.3465 15.8462 48.4293 16.0116 48.4293 16.2481C48.4293 16.4846 48.3223 16.6231 48.1541 16.6231V16.6235ZM49.4265 16.8987C49.7381 16.8987 49.9525 16.7476 49.9525 16.4967C49.9525 16.2045 49.721 16.146 49.5115 16.102C49.3339 16.0656 49.1684 16.0557 49.1684 15.9487C49.1684 15.8587 49.2534 15.8093 49.3824 15.8093C49.5241 15.8093 49.609 15.8587 49.6239 15.9923H49.9233C49.899 15.7414 49.7165 15.5786 49.3874 15.5786C49.1023 15.5786 48.8784 15.7072 48.8784 15.9779C48.8784 16.2504 49.0974 16.3115 49.3217 16.3556C49.4921 16.3893 49.6504 16.4014 49.6504 16.521C49.6504 16.6087 49.5677 16.6649 49.4216 16.6649C49.2732 16.6649 49.1707 16.6015 49.1486 16.4576H48.842C48.8613 16.7229 49.0637 16.8983 49.4265 16.8983V16.8987ZM51.2106 16.8618V15.6124H50.8792V16.3335C50.8792 16.499 50.7839 16.6159 50.6283 16.6159C50.4871 16.6159 50.421 16.5354 50.421 16.3893V15.6124H50.0924V16.4455C50.0924 16.7184 50.2484 16.896 50.5258 16.896C50.7012 16.896 50.7987 16.8304 50.8841 16.7162H50.8913V16.8618H51.2106ZM51.4246 16.8618H51.7559V16.1366C51.7559 15.9707 51.8459 15.8637 51.9799 15.8637C52.1017 15.8637 52.1723 15.937 52.1723 16.0782V16.8623H52.5036V16.1366C52.5036 15.9707 52.5891 15.8637 52.728 15.8637C52.8499 15.8637 52.9204 15.937 52.9204 16.0782V16.8623H53.2518V16.022C53.2518 15.749 53.103 15.5786 52.84 15.5786C52.6817 15.5786 52.55 15.6614 52.465 15.798H52.46C52.43 15.7317 52.3813 15.6755 52.3198 15.6366C52.2582 15.5976 52.1867 15.5774 52.1138 15.5786C52.0408 15.5768 51.9686 15.5946 51.9048 15.6302C51.8409 15.6658 51.7878 15.7179 51.751 15.781H51.7438V15.6128H51.4246V16.8627V16.8618Z" fill="#E5708C"/>
<path d="M53.317 1.12807C53.317 0.596175 53.7482 0.164548 54.28 0.164548H54.9225C55.1781 0.164548 55.4232 0.266061 55.6039 0.446756C55.7845 0.627451 55.8861 0.872526 55.8861 1.12807C55.8861 1.38361 55.7845 1.62868 55.6039 1.80938C55.4232 1.99007 55.1781 2.09159 54.9225 2.09159H54.28C54.1535 2.09159 54.0283 2.06666 53.9114 2.01823C53.7945 1.96981 53.6883 1.89883 53.5989 1.80935C53.5095 1.71987 53.4385 1.61365 53.3902 1.49676C53.3418 1.37986 53.3169 1.25458 53.317 1.12807ZM26.3443 6.58681C26.3443 10.1334 23.4695 13.0086 19.9225 13.0086C16.3759 13.0086 13.5007 10.1334 13.5007 6.58681C13.5007 3.03937 16.3759 0.164997 19.9225 0.164997C23.4695 0.164997 26.3443 3.03937 26.3443 6.58681ZM12.248 6.55489C12.6032 6.55489 12.8937 6.84264 12.8582 7.19604C12.7368 8.40541 12.2747 9.55551 11.5255 10.5127C10.7764 11.4698 9.77105 12.1947 8.62627 12.6031C7.48148 13.0115 6.2443 13.0867 5.05851 12.8198C3.87271 12.553 2.78699 11.9551 1.92754 11.0956C1.06808 10.2362 0.470182 9.15044 0.203323 7.96465C-0.0635356 6.77885 0.0116066 5.54167 0.420017 4.39688C0.828426 3.2521 1.55333 2.24673 2.51049 1.49761C3.46764 0.748486 4.61774 0.286381 5.82712 0.164997C6.18006 0.129028 6.46826 0.420377 6.46826 0.774672V5.91239C6.46826 6.26759 6.75602 6.55489 7.11076 6.55489H12.248ZM35.3352 14.2932C35.8461 14.2932 36.3362 14.4961 36.6975 14.8575C37.0588 15.2188 37.2618 15.7088 37.2618 16.2198C37.2618 16.7307 37.0588 17.2208 36.6975 17.5821C36.3362 17.9434 35.8461 18.1463 35.3352 18.1463H32.1245C31.6135 18.1463 31.1235 17.9434 30.7622 17.5821C30.4009 17.2208 30.1979 16.7307 30.1979 16.2198C30.1979 15.7088 30.4009 15.2188 30.7622 14.8575C31.1235 14.4961 31.6135 14.2932 32.1245 14.2932H35.3352ZM33.4086 13.0086C36.9556 13.0086 39.8309 10.1334 39.8309 6.58681C39.8324 5.49738 39.5555 4.42562 39.0265 3.47325L40.0876 2.41216C40.2098 2.28988 40.3067 2.14472 40.3729 1.98498C40.439 1.82524 40.473 1.65403 40.473 1.48114C40.4729 1.30826 40.4388 1.13707 40.3726 0.977357C40.3064 0.817645 40.2094 0.672536 40.0871 0.550315C39.9649 0.428094 39.8197 0.331155 39.66 0.265032C39.5002 0.198909 39.329 0.164897 39.1561 0.164939C38.9832 0.164981 38.812 0.199075 38.6523 0.265275C38.4926 0.331475 38.3475 0.428485 38.2253 0.550765L37.2991 1.47697C36.1817 0.62356 34.8141 0.162285 33.4081 0.164548C29.862 0.164997 26.9872 3.03937 26.9872 6.58681C26.9872 10.1334 29.8625 13.0086 33.409 13.0086H33.4086ZM53.317 6.58681C53.317 10.1334 50.4417 13.0086 46.8947 13.0086C43.3482 13.0086 40.4729 10.1334 40.4729 6.58681C40.4729 3.03937 43.3482 0.164997 46.8947 0.164997C50.4417 0.164997 53.317 3.03982 53.317 6.58681Z" fill="url(#paint0_linear_134_176)"/>
</g>
<defs>
<linearGradient id="paint0_linear_134_176" x1="0.0464503" y1="7.35565" x2="53.5503" y2="7.35565" gradientUnits="userSpaceOnUse">
<stop stop-color="#64C2DB"/>
<stop offset="0.307" stop-color="#7476ED"/>
<stop offset="0.604" stop-color="#C994DF"/>
<stop offset="1" stop-color="#E56F8C"/>
</linearGradient>
<clipPath id="clip0_134_176">
<rect width="56.2015" height="17.9845" fill="white" transform="translate(0.0465088 0.161865)"/>
</clipPath>
</defs>
</svg>
