<svg width="81" height="20" viewBox="0 0 81 20" fill="none" xmlns="http://www.w3.org/2000/svg">
<g clip-path="url(#clip0_134_139)">
<path d="M24.6548 13.712H30.3369V12.0005H26.6743V5.55396H24.6548V13.712Z" fill="#340E0E"/>
<path d="M33.7033 12.571C32.8932 12.571 32.471 11.8636 32.471 10.8025C32.471 9.7414 32.8932 9.02258 33.7033 9.02258C34.5134 9.02258 34.9469 9.7414 34.9469 10.8025C34.9469 11.8636 34.5134 12.571 33.7033 12.571ZM33.7147 13.8946C35.5973 13.8946 36.8296 12.5596 36.8296 10.8025C36.8296 9.0454 35.5973 7.71045 33.7147 7.71045C31.8435 7.71045 30.5884 9.0454 30.5884 10.8025C30.5884 12.5596 31.8435 13.8946 33.7147 13.8946Z" fill="#340E0E"/>
<path d="M40.0883 15.7315C40.9555 15.7315 41.7199 15.5375 42.2334 15.0811C42.7012 14.659 43.0092 14.02 43.0092 13.1415V7.87012H41.2293V8.49766H41.2065C40.8642 8.00704 40.3393 7.69897 39.5635 7.69897C38.1144 7.69897 37.1104 8.90842 37.1104 10.6199C37.1104 12.4112 38.3312 13.3925 39.6433 13.3925C40.3507 13.3925 40.7957 13.1072 41.138 12.7193H41.1837V13.3012C41.1837 14.0086 40.8528 14.4194 40.0655 14.4194C39.4494 14.4194 39.1413 14.1569 39.0386 13.8489H37.2359C37.4184 15.0697 38.4795 15.7315 40.0883 15.7315ZM40.0769 12.0119C39.3809 12.0119 38.9245 11.4414 38.9245 10.5628C38.9245 9.67288 39.3809 9.10238 40.0769 9.10238C40.8528 9.10238 41.2635 9.76415 41.2635 10.5514C41.2635 11.3729 40.887 12.0119 40.0769 12.0119Z" fill="#340E0E"/>
<path d="M46.6691 12.571C45.859 12.571 45.4368 11.8636 45.4368 10.8025C45.4368 9.7414 45.859 9.02258 46.6691 9.02258C47.4792 9.02258 47.9128 9.7414 47.9128 10.8025C47.9128 11.8636 47.4792 12.571 46.6691 12.571ZM46.6805 13.8946C48.5631 13.8946 49.7954 12.5596 49.7954 10.8025C49.7954 9.0454 48.5631 7.71045 46.6805 7.71045C44.8093 7.71045 43.5542 9.0454 43.5542 10.8025C43.5542 12.5596 44.8093 13.8946 46.6805 13.8946Z" fill="#340E0E"/>
<path d="M50.3384 13.712H52.1982V7.87015H50.3384V13.712ZM50.3384 7.06005H52.1982V5.55396H50.3384V7.06005Z" fill="#340E0E"/>
<path d="M53.0054 15.6402H54.8652V13.1072H54.888C55.2531 13.5979 55.7894 13.8945 56.5424 13.8945C58.0713 13.8945 59.0868 12.6851 59.0868 10.791C59.0868 9.03393 58.1398 7.69897 56.5881 7.69897C55.7894 7.69897 55.2189 8.05268 54.8195 8.57753H54.7853V7.87012H53.0054V15.6402ZM56.0632 12.4569C55.2645 12.4569 54.8081 11.8065 54.8081 10.8595C54.8081 9.91248 55.2189 9.19366 56.029 9.19366C56.8277 9.19366 57.2042 9.85543 57.2042 10.8595C57.2042 11.8522 56.7706 12.4569 56.0632 12.4569Z" fill="#340E0E"/>
<path d="M62.1147 13.8945C63.6436 13.8945 64.7732 13.2327 64.7732 11.9548C64.7732 10.4602 63.5638 10.1977 62.5369 10.0266C61.7953 9.88966 61.1335 9.83261 61.1335 9.42186C61.1335 9.05675 61.4872 8.8856 61.9436 8.8856C62.457 8.8856 62.8107 9.04534 62.8792 9.57019H64.5907C64.4994 8.41779 63.6094 7.69897 61.955 7.69897C60.5744 7.69897 59.4334 8.33793 59.4334 9.57019C59.4334 10.9394 60.5174 11.2132 61.5328 11.3844C62.3087 11.5213 63.0161 11.5783 63.0161 12.1032C63.0161 12.4797 62.6624 12.6851 62.1033 12.6851C61.4872 12.6851 61.0993 12.3998 61.0308 11.8179H59.2737C59.3307 13.1072 60.4033 13.8945 62.1147 13.8945Z" fill="#340E0E"/>
<path d="M67.2994 13.8831C68.1095 13.8831 68.6229 13.5636 69.0451 12.9931H69.0793V13.712H70.8592V7.87012H68.9994V11.1333C68.9994 11.8293 68.6115 12.3085 67.9726 12.3085C67.3792 12.3085 67.094 11.9548 67.094 11.3159V7.87012H65.2456V11.7038C65.2456 13.0045 65.953 13.8831 67.2994 13.8831Z" fill="#340E0E"/>
<path d="M71.668 13.712H73.5278V10.4373C73.5278 9.74134 73.8701 9.25071 74.452 9.25071C75.0111 9.25071 75.2735 9.61583 75.2735 10.2434V13.712H77.1333V10.4373C77.1333 9.74134 77.4642 9.25071 78.0575 9.25071C78.6166 9.25071 78.879 9.61583 78.879 10.2434V13.712H80.7388V9.91248C80.7388 8.60035 80.077 7.69897 78.7535 7.69897C78.0004 7.69897 77.3729 8.01845 76.9165 8.72586H76.8937C76.597 8.09832 76.0151 7.69897 75.2507 7.69897C74.4063 7.69897 73.8472 8.09832 73.4821 8.70304H73.4479V7.87012H71.668V13.712Z" fill="#340E0E"/>
<path fill-rule="evenodd" clip-rule="evenodd" d="M9.8334 19.4169C15.0846 19.4169 19.3416 15.1599 19.3416 9.9087C19.3416 4.65748 15.0846 0.400513 9.8334 0.400513C4.58215 0.400513 0.325195 4.65748 0.325195 9.9087C0.325195 15.1599 4.58215 19.4169 9.8334 19.4169ZM12.7996 4.82983C12.944 4.31696 12.4463 4.01369 11.9918 4.33752L5.64651 8.85785C5.15356 9.20903 5.2311 9.9087 5.76299 9.9087H7.43387V9.89576H10.6903L8.03692 10.832L6.86718 14.9876C6.72279 15.5005 7.22045 15.8037 7.67504 15.4799L14.0203 10.9596C14.5132 10.6084 14.4357 9.9087 13.9038 9.9087H11.37L12.7996 4.82983Z" fill="#F15757"/>
</g>
<defs>
<clipPath id="clip0_134_139">
<rect width="80.8197" height="19.4918" fill="white" transform="translate(0 0.334839)"/>
</clipPath>
</defs>
</svg>
