<svg width="16" height="16" viewBox="0 0 16 16" fill="none" xmlns="http://www.w3.org/2000/svg">
<path d="M0.481934 1.14913C0.481934 0.932069 0.590273 0.756104 0.723917 0.756104H4.65615C4.78979 0.756104 4.89813 0.932069 4.89813 1.14913V2.42648C4.89813 2.64354 4.78979 2.81951 4.65615 2.81951H0.723917C0.590273 2.81951 0.481934 2.64354 0.481934 2.42648V1.14913Z" fill="#F5841F"/>
<path d="M0.481934 7.43786C0.481934 7.2208 0.590273 7.04483 0.723917 7.04483H14.88C15.0136 7.04483 15.1219 7.2208 15.1219 7.43786V8.71521C15.1219 8.93227 15.0136 9.10823 14.88 9.10823H0.723917C0.590273 9.10823 0.481934 8.93227 0.481934 8.71521V7.43786Z" fill="#F5841F"/>
<path d="M0.481934 13.7257C0.481934 13.5087 0.590273 13.3327 0.723917 13.3327H8.58838C8.72202 13.3327 8.83036 13.5087 8.83036 13.7257V15.0031C8.83036 15.2201 8.72202 15.3961 8.58838 15.3961H0.723917C0.590273 15.3961 0.481934 15.2201 0.481934 15.0031V13.7257Z" fill="#F5841F"/>
</svg>
