<svg width="15" height="16" viewBox="0 0 15 16" fill="none" xmlns="http://www.w3.org/2000/svg">
<path fill-rule="evenodd" clip-rule="evenodd" d="M1.29568 3.80484H13.4908V3.80487V4.88041L7.39324 7.92919L1.29568 4.88041V3.80487V3.80484ZM0.0761719 3.80487V3.80484C0.0761719 3.13132 0.622166 2.58533 1.29568 2.58533H13.4908C14.1643 2.58533 14.7103 3.13132 14.7103 3.80484V3.80487V5.63411V11.7317C14.7103 12.742 13.8913 13.561 12.881 13.561H1.90544C0.895163 13.561 0.0761719 12.742 0.0761719 11.7317V5.63411V3.80487ZM1.29568 6.24386V11.7317C1.29568 12.0685 1.56868 12.3415 1.90544 12.3415H12.881C13.2178 12.3415 13.4908 12.0685 13.4908 11.7317V6.24386L7.39324 9.29264L1.29568 6.24386Z" fill="#F5841F"/>
</svg>
