<svg width="18" height="19" viewBox="0 0 18 19" fill="none" xmlns="http://www.w3.org/2000/svg">
<path d="M12 6.14648C13.1935 6.14648 14.3381 6.62059 15.182 7.4645C16.0259 8.30842 16.5 9.45301 16.5 10.6465V15.8965H13.5V10.6465C13.5 10.2487 13.342 9.86713 13.0607 9.58582C12.7794 9.30452 12.3978 9.14648 12 9.14648C11.6022 9.14648 11.2206 9.30452 10.9393 9.58582C10.658 9.86713 10.5 10.2487 10.5 10.6465V15.8965H7.5V10.6465C7.5 9.45301 7.97411 8.30842 8.81802 7.4645C9.66193 6.62059 10.8065 6.14648 12 6.14648V6.14648Z" stroke="#2D4275" stroke-width="1.2" stroke-linecap="round" stroke-linejoin="round"/>
<path d="M4.5 6.89648H1.5V15.8965H4.5V6.89648Z" stroke="#2D4275" stroke-width="1.2" stroke-linecap="round" stroke-linejoin="round"/>
<path d="M3 4.64648C3.82843 4.64648 4.5 3.97491 4.5 3.14648C4.5 2.31806 3.82843 1.64648 3 1.64648C2.17157 1.64648 1.5 2.31806 1.5 3.14648C1.5 3.97491 2.17157 4.64648 3 4.64648Z" stroke="#2D4275" stroke-width="1.2" stroke-linecap="round" stroke-linejoin="round"/>
</svg>
