<svg width="60" height="19" viewBox="0 0 60 19" fill="none" xmlns="http://www.w3.org/2000/svg">
<path d="M10.491 5.29844H11.3902V11.557H14.0879V12.4563H10.491V5.29844ZM16.889 5.29844C17.4225 5.29844 17.9441 5.45666 18.3877 5.75309C18.8313 6.04952 19.1771 6.4708 19.3813 6.96376C19.5855 7.45671 19.6389 7.99913 19.5348 8.52239C19.4307 9.04569 19.1738 9.52637 18.7965 9.90364C18.4192 10.281 17.9385 10.5379 17.4152 10.6419C16.892 10.746 16.3496 10.6926 15.8566 10.4885C15.3636 10.2842 14.9424 9.93848 14.6459 9.49485C14.3495 9.05122 14.1913 8.52967 14.1913 7.99611C14.1913 7.64186 14.2611 7.29103 14.3966 6.96376C14.5322 6.63644 14.7309 6.33907 14.9814 6.08859C15.2319 5.83806 15.5293 5.63934 15.8566 5.50378C16.1839 5.36822 16.5347 5.29844 16.889 5.29844ZM16.889 9.79456C17.2446 9.79456 17.5924 9.68909 17.8881 9.49148C18.1839 9.29383 18.4144 9.01296 18.5505 8.68434C18.6866 8.35571 18.7222 7.99414 18.6528 7.64524C18.5835 7.29638 18.4121 6.97594 18.1606 6.72443C17.9091 6.47292 17.5887 6.30161 17.2398 6.23224C16.8909 6.16282 16.5294 6.19843 16.2007 6.33457C15.8721 6.47067 15.5912 6.70119 15.3936 6.99694C15.196 7.2927 15.0905 7.64043 15.0905 7.99611C15.0929 8.47153 15.2834 8.92668 15.6204 9.262C15.9574 9.59732 16.4135 9.78557 16.889 9.78557V9.79456ZM15.0905 11.566H18.6874V12.4653H15.0905V11.566ZM26.6006 12.4653H25.7014V11.8223C25.1214 12.2282 24.4309 12.4464 23.7231 12.4473C23.1195 12.4513 22.5245 12.3034 21.9931 12.0171C21.4617 11.7308 21.0109 11.3154 20.6822 10.8092C20.3535 10.3029 20.1575 9.72204 20.1122 9.1201C20.0669 8.5182 20.1739 7.91455 20.4232 7.36486C20.6725 6.81512 21.0562 6.33695 21.5388 5.97448C22.0215 5.61195 22.5876 5.37672 23.185 5.29048C23.7824 5.2042 24.3919 5.26971 24.9574 5.48089C25.5229 5.69208 26.0261 6.04214 26.4207 6.49891L25.7598 7.0879C25.4596 6.75231 25.0803 6.4972 24.6563 6.34581C24.2323 6.19438 23.7771 6.15149 23.3323 6.22104C22.8875 6.2906 22.4672 6.4704 22.1096 6.74399C21.7521 7.01762 21.4687 7.37632 21.2854 7.78754C21.102 8.19871 21.0244 8.64922 21.0597 9.09807C21.0951 9.54692 21.2421 9.97976 21.4876 10.3572C21.7331 10.7346 22.0691 11.0446 22.4651 11.2589C22.861 11.4731 23.3043 11.5849 23.7545 11.584C24.1282 11.5848 24.4976 11.5048 24.8375 11.3496C25.1773 11.1944 25.4797 10.9676 25.7238 10.6848H23.2959V9.78557H26.6096L26.6006 12.4653ZM29.9097 5.31642C30.4433 5.31642 30.9648 5.47464 31.4085 5.77107C31.8521 6.0675 32.1979 6.48879 32.4021 6.98174C32.6062 7.4747 32.6596 8.01711 32.5556 8.54037C32.4515 9.06367 32.1946 9.54435 31.8173 9.92162C31.44 10.2989 30.9593 10.5558 30.436 10.6599C29.9127 10.764 29.3703 10.7106 28.8774 10.5064C28.3844 10.3022 27.9631 9.95647 27.6667 9.51284C27.3703 9.0692 27.2121 8.54765 27.2121 8.0141C27.2097 7.65756 27.278 7.30412 27.4131 6.97415C27.5481 6.64417 27.7473 6.34424 27.999 6.09174C28.2507 5.83919 28.5499 5.63907 28.8794 5.50288C29.209 5.36674 29.5622 5.29723 29.9187 5.29844L29.9097 5.31642ZM29.9097 9.81255C30.2654 9.81255 30.6131 9.70707 30.9089 9.50946C31.2047 9.31181 31.4352 9.03094 31.5713 8.70232C31.7074 8.3737 31.743 8.01212 31.6736 7.66322C31.6042 7.31437 31.4329 6.99393 31.1814 6.74241C30.9299 6.4909 30.6095 6.3196 30.2606 6.25022C29.9117 6.1808 29.5501 6.21641 29.2215 6.35256C28.8929 6.48865 28.612 6.71917 28.4144 7.01492C28.2168 7.31068 28.1113 7.65841 28.1113 8.0141C28.1184 8.48795 28.3122 8.93985 28.6507 9.27157C28.9891 9.60325 29.4448 9.788 29.9187 9.78557L29.9097 9.81255ZM28.1113 11.584H31.7082V12.4832H28.1113V11.584ZM33.5651 5.29844H34.4643V12.4473H33.5651V5.29844ZM35.7097 5.29844H36.609C36.6553 5.29354 36.702 5.29354 36.7483 5.29844C37.1249 5.25757 37.5059 5.29651 37.8665 5.41264C38.227 5.52882 38.5591 5.71959 38.841 5.97259C39.123 6.22559 39.3484 6.53514 39.5028 6.88108C39.6572 7.22701 39.737 7.60158 39.737 7.98038C39.737 8.35918 39.6572 8.73375 39.5028 9.07968C39.3484 9.42561 39.123 9.73517 38.841 9.98817C38.5591 10.2412 38.227 10.4319 37.8665 10.5481C37.5059 10.6642 37.1249 10.7032 36.7483 10.6623H36.609V12.4608H35.7097V5.29844ZM36.609 6.19766V9.7541H36.7483C37.0023 9.78791 37.2606 9.76709 37.5059 9.69295C37.7511 9.61885 37.9778 9.49319 38.1705 9.3244C38.3633 9.15562 38.5177 8.94758 38.6236 8.71424C38.7294 8.48089 38.7842 8.22762 38.7842 7.97139C38.7842 7.71515 38.7294 7.46188 38.6236 7.22854C38.5177 6.99519 38.3633 6.78715 38.1705 6.61837C37.9778 6.44954 37.7511 6.32392 37.5059 6.24977C37.2606 6.17568 37.0023 6.15486 36.7483 6.18867C36.6994 6.19375 36.6511 6.20432 36.6045 6.22014L36.609 6.19766ZM43.0879 5.81549L42.4224 6.34154C42.3077 6.22158 42.161 6.13688 41.9997 6.0974C41.8384 6.05792 41.6693 6.0653 41.512 6.11867C41.3547 6.17199 41.216 6.26911 41.1121 6.3986C41.0081 6.52808 40.9433 6.68455 40.9252 6.8496V6.92154C40.9252 7.3172 41.1995 7.58247 41.7345 7.61844C43.7938 7.74433 44.7379 8.711 44.7379 9.9879V10.0688C44.6848 10.5742 44.4876 11.0537 44.1698 11.4502C43.852 11.8468 43.427 12.1437 42.9453 12.3056C42.4637 12.4676 41.9456 12.4878 41.4528 12.3639C40.96 12.24 40.5131 11.9771 40.1654 11.6065L40.8533 11.076C41.0134 11.2476 41.2089 11.3823 41.4263 11.4708C41.6437 11.5593 41.8777 11.5995 42.1122 11.5885C42.5453 11.6114 42.9704 11.466 43.2988 11.1828C43.6272 10.8996 43.8335 10.5005 43.8747 10.0688V10.0059C43.8747 8.80542 42.6967 8.58511 41.6761 8.48619C40.7319 8.39627 40.053 7.80728 40.053 6.95751V6.92154C40.0863 6.47912 40.2882 6.06638 40.617 5.76855C40.9458 5.47069 41.3764 5.31044 41.82 5.32092C42.055 5.314 42.2889 5.35639 42.5065 5.44546C42.7241 5.53453 42.9207 5.66825 43.0834 5.83797L43.0879 5.81549ZM48.2584 11.5346C49.3779 11.5346 50.2637 10.3251 50.2637 8.83689V5.23999H51.1629V8.83689C51.1629 10.8152 49.868 12.4113 48.2764 12.4113C46.6848 12.4113 45.3899 10.8152 45.3899 8.83689V5.23999H46.2891V8.83689C46.2531 10.3476 47.1389 11.557 48.2539 11.557L48.2584 11.5346ZM58.0645 12.4338H57.1652V7.98263L55.0925 10.6803L53.0198 7.98263V12.4473H52.1206V5.29844L55.088 9.20557L58.0555 5.29844L58.0645 12.4338Z" fill="#394149"/>
<path d="M6.17474 4.22397C6.17474 3.57528 5.91707 2.95315 5.45837 2.49446C4.99968 2.03577 4.37754 1.77808 3.72885 1.77808C3.08016 1.77808 2.45804 2.03577 1.99934 2.49446C1.54065 2.95315 1.28296 3.57528 1.28296 4.22397V11.6201L3.29722 13.0633V16.5793H4.16048V13.0633L6.17474 11.6201V4.22397ZM5.31149 8.3604L4.16048 9.51141V8.43234L5.31149 7.28133V8.3604ZM2.1642 7.28133L3.31521 8.43234V9.51141L2.1642 8.3604V7.28133ZM5.31149 6.05839L3.72885 7.64102L2.14621 6.02242V4.94335L3.72885 6.52598L5.31149 4.94335V6.05839ZM3.72885 2.64133C4.07692 2.64287 4.41488 2.75847 4.69098 2.97042C4.96708 3.18236 5.16608 3.47897 5.25753 3.81482L3.72885 5.33901L2.20017 3.81482C2.28827 3.47563 2.48584 3.175 2.76224 2.95957C3.03865 2.74414 3.37842 2.62595 3.72885 2.62334V2.64133ZM2.14621 11.184V9.56536L3.29722 10.7164V12.0023L2.14621 11.184ZM4.16048 12.0068V10.7164L5.31149 9.56536V11.1795L4.16048 12.0068Z" fill="#394149"/>
</svg>
