<svg width="33" height="23" viewBox="0 0 33 23" fill="none" xmlns="http://www.w3.org/2000/svg">
<g clip-path="url(#clip0_134_172)">
<path d="M21.1188 10.9371C21.1188 16.5241 16.5896 21.0534 11.0025 21.0534C5.41547 21.0534 0.88623 16.5241 0.88623 10.9371C0.88623 5.35002 5.41547 0.820801 11.0025 0.820801C16.5896 0.820801 21.1188 5.35002 21.1188 10.9371Z" fill="#68DBFF"/>
<path d="M32.0285 10.9371C32.0285 16.5241 27.5436 21.0534 22.0114 21.0534C16.4791 21.0534 11.9943 16.5241 11.9943 10.9371C11.9943 5.35002 16.4791 0.820801 22.0114 0.820801C27.5436 0.820801 32.0285 5.35002 32.0285 10.9371Z" fill="#FF7917"/>
<path d="M16.534 19.4085C19.2948 17.6021 21.1187 14.4826 21.1187 10.9371C21.1187 7.39159 19.2948 4.27206 16.534 2.4657C13.8003 4.27206 11.9943 7.39159 11.9943 10.9371C11.9943 14.4826 13.8003 17.6021 16.534 19.4085Z" fill="#5D2C02"/>
</g>
<defs>
<clipPath id="clip0_134_172">
<rect width="32.8217" height="22.031" fill="white" transform="translate(0.0465088 0.146362)"/>
</clipPath>
</defs>
</svg>
