<svg width="60" height="61" viewBox="0 0 60 61" fill="none" xmlns="http://www.w3.org/2000/svg">
<g clip-path="url(#clip0_126_213)">
<path d="M31.25 25.1464C31.25 21.0214 27.875 17.6464 23.75 17.6464C19.625 17.6464 16.25 21.0214 16.25 25.1464C16.25 29.2714 19.625 32.6464 23.75 32.6464C27.875 32.6464 31.25 29.2714 31.25 25.1464ZM23.75 27.6464C22.375 27.6464 21.25 26.5214 21.25 25.1464C21.25 23.7714 22.375 22.6464 23.75 22.6464C25.125 22.6464 26.25 23.7714 26.25 25.1464C26.25 26.5214 25.125 27.6464 23.75 27.6464ZM40 32.6464C42.775 32.6464 45 30.4214 45 27.6464C45 24.8714 42.775 22.6464 40 22.6464C37.225 22.6464 34.975 24.8714 35 27.6464C35 30.4214 37.225 32.6464 40 32.6464ZM29.975 5.17139C16.175 5.17139 4.97498 16.3714 4.97498 30.1714C4.97498 43.9714 16.175 55.1714 29.975 55.1714C43.775 55.1714 54.975 43.9714 54.975 30.1714C54.975 16.3714 43.775 5.17139 29.975 5.17139ZM14.6 42.9464C16.3 41.5964 20.275 40.1714 23.75 40.1714C23.925 40.1714 24.125 40.1964 24.325 40.1964C24.925 38.5964 26 36.9714 27.575 35.5464C26.3136 35.3047 25.034 35.1709 23.75 35.1464C20.5 35.1464 15.275 36.2714 11.925 38.7214C10.675 36.1214 9.97498 33.2214 9.97498 30.1464C9.97498 19.1214 18.95 10.1464 29.975 10.1464C41 10.1464 49.975 19.1214 49.975 30.1464C49.975 33.1464 49.3 35.9964 48.1 38.5714C45.6 37.0964 42.2 36.3964 40 36.3964C36.2 36.3964 28.75 38.4214 28.75 43.1464V50.0964C26.0265 49.9415 23.3643 49.2266 20.9297 47.9964C18.495 46.7661 16.3402 45.047 14.6 42.9464Z" fill="#8ECAE6"/>
</g>
<defs>
<clipPath id="clip0_126_213">
<rect width="60" height="60" fill="white" transform="translate(0 0.146362)"/>
</clipPath>
</defs>
</svg>
