<svg width="60" height="61" viewBox="0 0 60 61" fill="none" xmlns="http://www.w3.org/2000/svg">
<path d="M35.125 46.0839L47.5625 33.6464L44 30.1464L35.125 39.0214L31.625 35.4589L28.0625 39.0214L35.125 46.0839ZM17.5 37.6464H25V32.6464H17.5V37.6464ZM17.5 30.1464H35V25.1464H17.5V30.1464ZM17.5 22.6464H35V17.6464H17.5V22.6464ZM30 55.1464C26.5417 55.1464 23.2917 54.4897 20.25 53.1764C17.2083 51.8647 14.5625 50.0839 12.3125 47.8339C10.0625 45.5839 8.28167 42.938 6.97 39.8964C5.65667 36.8547 5 33.6047 5 30.1464C5 26.688 5.65667 23.438 6.97 20.3964C8.28167 17.3547 10.0625 14.7089 12.3125 12.4589C14.5625 10.2089 17.2083 8.4272 20.25 7.11386C23.2917 5.8022 26.5417 5.14636 30 5.14636C33.4583 5.14636 36.7083 5.8022 39.75 7.11386C42.7917 8.4272 45.4375 10.2089 47.6875 12.4589C49.9375 14.7089 51.7183 17.3547 53.03 20.3964C54.3433 23.438 55 26.688 55 30.1464C55 33.6047 54.3433 36.8547 53.03 39.8964C51.7183 42.938 49.9375 45.5839 47.6875 47.8339C45.4375 50.0839 42.7917 51.8647 39.75 53.1764C36.7083 54.4897 33.4583 55.1464 30 55.1464ZM30 50.1464C35.5833 50.1464 40.3125 48.2089 44.1875 44.3339C48.0625 40.4589 50 35.7297 50 30.1464C50 24.563 48.0625 19.8339 44.1875 15.9589C40.3125 12.0839 35.5833 10.1464 30 10.1464C24.4167 10.1464 19.6875 12.0839 15.8125 15.9589C11.9375 19.8339 10 24.563 10 30.1464C10 35.7297 11.9375 40.4589 15.8125 44.3339C19.6875 48.2089 24.4167 50.1464 30 50.1464Z" fill="#8ECAE6"/>
</svg>
