<svg width="91" height="91" viewBox="0 0 91 91" fill="none" xmlns="http://www.w3.org/2000/svg">
<path d="M36.125 35.6152V55.6777C36.125 57.1152 36.7812 58.209 38.0937 58.959C39.4062 59.709 40.6875 59.6465 41.9375 58.7715L57.5 48.834C58.6875 48.084 59.2812 47.0215 59.2812 45.6465C59.2812 44.2715 58.6875 43.209 57.5 42.459L41.9375 32.5215C40.6875 31.6465 39.4062 31.584 38.0937 32.334C36.7812 33.084 36.125 34.1777 36.125 35.6152ZM45.5 83.1465C40.3125 83.1465 35.4375 82.1615 30.875 80.1915C26.3125 78.224 22.3438 75.5527 18.9688 72.1777C15.5938 68.8027 12.9225 64.834 10.955 60.2715C8.985 55.709 8 50.834 8 45.6465C8 40.459 8.985 35.584 10.955 31.0215C12.9225 26.459 15.5938 22.4902 18.9688 19.1152C22.3438 15.7402 26.3125 13.0677 30.875 11.0977C35.4375 9.13023 40.3125 8.14648 45.5 8.14648C50.6875 8.14648 55.5625 9.13023 60.125 11.0977C64.6875 13.0677 68.6562 15.7402 72.0312 19.1152C75.4062 22.4902 78.0775 26.459 80.045 31.0215C82.015 35.584 83 40.459 83 45.6465C83 50.834 82.015 55.709 80.045 60.2715C78.0775 64.834 75.4062 68.8027 72.0312 72.1777C68.6562 75.5527 64.6875 78.224 60.125 80.1915C55.5625 82.1615 50.6875 83.1465 45.5 83.1465Z" fill="#F5841F"/>
</svg>
