<svg width="16" height="16" viewBox="0 0 16 16" fill="none" xmlns="http://www.w3.org/2000/svg">
<path fill-rule="evenodd" clip-rule="evenodd" d="M2.42837 8.07316C2.42837 5.04233 4.88535 2.58536 7.91618 2.58536C10.947 2.58536 13.404 5.04233 13.404 8.07316C13.404 9.73281 12.6673 11.2204 11.503 12.2267C11.1668 10.5532 9.68869 9.29269 7.91619 9.29269C6.14369 9.29269 4.66559 10.5532 4.32939 12.2267C3.16512 11.2204 2.42837 9.73282 2.42837 8.07316ZM5.47717 12.9905C6.2119 13.3557 7.04006 13.561 7.91618 13.561C8.79231 13.561 9.62048 13.3557 10.3552 12.9905V12.9512C10.3552 11.6042 9.26323 10.5122 7.91619 10.5122C6.56916 10.5122 5.47717 11.6042 5.47717 12.9512V12.9905ZM7.91618 1.36584C4.21183 1.36584 1.20886 4.36881 1.20886 8.07316C1.20886 11.7775 4.21183 14.7805 7.91618 14.7805C11.6205 14.7805 14.6235 11.7775 14.6235 8.07316C14.6235 4.36881 11.6205 1.36584 7.91618 1.36584ZM7.91619 7.46342C7.24268 7.46342 6.69668 6.91743 6.69668 6.24391C6.69668 5.57039 7.24268 5.0244 7.91619 5.0244C8.58971 5.0244 9.13571 5.57039 9.13571 6.24391C9.13571 6.91743 8.58971 7.46342 7.91619 7.46342ZM5.47717 6.24391C5.47717 7.59094 6.56916 8.68293 7.91619 8.68293C9.26323 8.68293 10.3552 7.59094 10.3552 6.24391C10.3552 4.89687 9.26323 3.80488 7.91619 3.80488C6.56916 3.80488 5.47717 4.89687 5.47717 6.24391Z" fill="#F5841F"/>
</svg>
