<svg width="16" height="16" viewBox="0 0 16 16" fill="none" xmlns="http://www.w3.org/2000/svg">
<path fill-rule="evenodd" clip-rule="evenodd" d="M3.98746 1.97607C4.4636 1.49954 5.23594 1.49932 5.71235 1.97559L7.96402 4.22662C8.44024 4.70271 8.44046 5.47468 7.9645 5.95104L7.16641 6.74979L9.76049 9.34346L10.5581 8.54523C11.0342 8.06869 11.8065 8.06848 12.2829 8.54475L14.2925 10.5537C14.7687 11.0298 14.7689 11.8018 14.293 12.2781L12.9636 13.6086C12.1842 14.3887 10.9843 14.5628 10.0153 14.0363C6.72418 12.2485 4.02069 9.54533 2.23197 6.25473C1.70552 5.28626 1.8787 4.08658 2.65794 3.30669L3.98746 1.97607ZM7.10181 5.08907L4.85014 2.83804L3.52062 4.16866C3.12328 4.56634 3.03486 5.17827 3.30342 5.67231C4.97971 8.75608 7.51328 11.2893 10.5974 12.9648C11.0916 13.2332 11.7035 13.1444 12.101 12.7466L13.4303 11.4162L11.4207 9.4072L9.76092 11.0684L5.44204 6.75021L7.10181 5.08907Z" fill="#F5841F"/>
</svg>
