<svg width="18" height="19" viewBox="0 0 18 19" fill="none" xmlns="http://www.w3.org/2000/svg">
<path d="M16.9049 4.96148C16.8159 4.60554 16.6344 4.27941 16.3789 4.01604C16.1235 3.75266 15.803 3.56137 15.4499 3.46148C14.1599 3.14648 8.99994 3.14648 8.99994 3.14648C8.99994 3.14648 3.83994 3.14648 2.54994 3.49148C2.19688 3.59137 1.87642 3.78266 1.62095 4.04604C1.36548 4.30941 1.18403 4.63554 1.09494 4.99148C0.858851 6.30065 0.743367 7.62872 0.74994 8.95898C0.741525 10.2993 0.857016 11.6375 1.09494 12.9565C1.19316 13.3014 1.37867 13.6151 1.63355 13.8673C1.88843 14.1196 2.20406 14.3018 2.54994 14.3965C3.83994 14.7415 8.99994 14.7415 8.99994 14.7415C8.99994 14.7415 14.1599 14.7415 15.4499 14.3965C15.803 14.2966 16.1235 14.1053 16.3789 13.8419C16.6344 13.5786 16.8159 13.2524 16.9049 12.8965C17.1392 11.5972 17.2547 10.2792 17.2499 8.95898C17.2584 7.6187 17.1429 6.28051 16.9049 4.96148V4.96148Z" stroke="#2D4275" stroke-width="1.2" stroke-linecap="round" stroke-linejoin="round"/>
<path d="M7.3125 11.4113L11.625 8.95885L7.3125 6.50635V11.4113Z" stroke="#2D4275" stroke-width="1.2" stroke-linecap="round" stroke-linejoin="round"/>
</svg>
